<?xml version="1.0" encoding="UTF-8"?>
<svg version="1.1" xmlns="http://www.w3.org/2000/svg" width="512" height="512">
<path d="M0 0 C1.15595869 -0.00445784 2.31191739 -0.00891569 3.50290513 -0.01350862 C5.40135702 -0.01323207 5.40135702 -0.01323207 7.33816147 -0.01294994 C8.69979575 -0.01625091 10.06142906 -0.01997697 11.42306113 -0.02409142 C15.16426795 -0.03409371 18.90545873 -0.03782538 22.64667702 -0.04048073 C26.68240539 -0.04438923 30.71812112 -0.05396742 34.7538414 -0.0626936 C44.50201633 -0.08244606 54.25019227 -0.0925242 63.99838221 -0.10142139 C68.59363473 -0.10580764 73.18888611 -0.1111737 77.78413773 -0.11641026 C93.06922415 -0.13342386 108.35430986 -0.1479156 123.6394043 -0.155159 C127.60505041 -0.15706878 131.57069653 -0.15898912 135.53634262 -0.16094494 C136.52193994 -0.16142868 137.50753726 -0.16191242 138.52300116 -0.16241082 C154.47062199 -0.17070193 170.41816758 -0.1960227 186.36575559 -0.22852562 C202.75456731 -0.26165414 219.1433409 -0.27961312 235.53218627 -0.28280324 C244.72738798 -0.28496334 253.9224801 -0.29363814 263.11764908 -0.31926441 C270.95303363 -0.34105097 278.78828197 -0.34898306 286.62369338 -0.33929763 C290.61571598 -0.33477539 294.60745803 -0.33651664 298.59944153 -0.35605907 C329.33447591 -0.49826999 329.33447591 -0.49826999 343.24728012 4.13422108 C344.17006382 4.43685714 345.09284752 4.7394932 346.04359436 5.05130005 C348.11744798 5.76784298 350.11247443 6.56806231 352.12228012 7.44672108 C353.17330917 7.89446888 353.17330917 7.89446888 354.24557114 8.35126209 C364.35790785 12.78812978 372.79280154 19.11072505 381.24728012 26.13422108 C382.13479965 26.80131092 382.13479965 26.80131092 383.04024887 27.48187733 C394.92803525 36.71538362 404.14619875 51.6893948 409.93478012 65.32172108 C410.20838364 65.95569813 410.48198715 66.58967518 410.76388168 67.24286366 C411.68278052 69.51483269 412.46347027 71.81182529 413.24728012 74.13422108 C413.58403008 75.0765009 413.92078003 76.01878073 414.26773453 76.98961449 C418.50887525 90.91854305 417.818743 105.31339829 417.77017879 119.72579682 C417.76104724 123.74158352 417.77513783 127.75730314 417.78609848 131.77307606 C417.80380315 139.61999066 417.80007972 147.46675147 417.78844792 155.31367188 C417.77938132 161.69664278 417.77820348 168.07957085 417.78254318 174.46254635 C417.78315611 175.37411479 417.78376905 176.28568323 417.78440055 177.22487496 C417.78567957 179.07724 417.78697643 180.92960502 417.78829092 182.78197003 C417.7996733 200.11621878 417.78662022 217.45038266 417.76508945 234.78461749 C417.74722362 249.62718734 417.75032289 264.469632 417.7687645 279.31219959 C417.79021792 296.58666528 417.79857172 313.86105672 417.78631544 331.13553387 C417.78504137 332.98104925 417.78378389 334.82656464 417.78254318 336.67208004 C417.78192608 337.57988863 417.78130898 338.48769722 417.78067318 339.42301516 C417.77723344 345.79069633 417.78301884 352.15833002 417.7924614 358.52600384 C417.80373275 366.29709902 417.80053432 374.06803279 417.77933842 381.83910971 C417.76889611 385.79676294 417.76458803 389.75414802 417.77793503 393.71179867 C417.8722278 424.17884956 417.8722278 424.17884956 413.24728012 438.13422108 C412.79341808 439.51891165 412.79341808 439.51891165 412.33038712 440.93157578 C411.61351704 443.00488496 410.81327857 444.99978209 409.93478012 447.00922108 C409.63628159 447.70990711 409.33778305 448.41059315 409.03023911 449.13251209 C398.05380657 474.14957131 375.33652985 495.89857014 349.92696762 505.89984608 C337.72308909 510.42523967 326.66744759 512.43411504 313.59309006 512.40164661 C312.23126381 512.40538961 310.86943971 512.40999371 309.50761896 512.41537726 C305.78908699 512.4275428 302.07064541 512.42735445 298.35209811 512.42498851 C294.332129 512.42457869 290.31218825 512.43563527 286.29223251 512.44510365 C278.42448726 512.46168003 270.55677199 512.4672117 262.68901073 512.4683284 C256.28874227 512.46928063 249.88848365 512.47339964 243.48821831 512.47972965 C225.31668916 512.49733417 207.14518359 512.50656995 188.97364586 512.5050687 C187.99507065 512.50498879 187.01649545 512.50490888 186.00826645 512.50482655 C184.53859765 512.5047039 184.53859765 512.5047039 183.03923858 512.50457878 C167.17276238 512.50376648 151.30638124 512.52289231 135.43993252 512.55110328 C119.12327804 512.57988424 102.80666983 512.59364066 86.48998934 512.59191573 C77.33958168 512.59125354 68.18927363 512.59667004 59.03888893 512.61827183 C51.24570534 512.63655252 43.45266651 512.64077487 35.65947067 512.62725298 C31.68969641 512.62075741 27.72019931 512.62048113 23.75045204 512.63795948 C-6.81257859 512.76420623 -6.81257859 512.76420623 -20.75271988 508.13422108 C-22.1372339 507.68029012 -22.1372339 507.68029012 -23.5497179 507.21718884 C-25.62325839 506.50048679 -27.61818559 505.7004069 -29.62771988 504.82172108 C-30.32913101 504.52249744 -31.03054214 504.22327381 -31.75320816 503.9149828 C-58.07768765 492.35302456 -77.99017571 469.55253076 -88.55057144 443.13861561 C-93.2601394 430.62630496 -95.05364672 418.80617736 -95.02014542 405.4736681 C-95.02388971 404.12335318 -95.02849431 402.77304043 -95.03387606 401.42273104 C-95.04602548 397.74066284 -95.04585519 394.05868604 -95.04348731 390.37660241 C-95.04307708 386.39414262 -95.05413786 382.41171133 -95.06360245 378.42926502 C-95.08016945 370.63718934 -95.08571006 362.84514394 -95.0868272 355.05305211 C-95.08777979 348.7143064 -95.09190055 342.37557061 -95.09822845 336.03682804 C-95.11582965 318.03721959 -95.12506916 300.03763492 -95.12356751 282.03801779 C-95.12348759 281.06896898 -95.12340768 280.09992016 -95.12332535 279.10150623 C-95.12324359 278.13126438 -95.12316183 277.16102253 -95.12307759 276.16137941 C-95.12226515 260.44692977 -95.14139497 244.73257609 -95.16960208 229.01815419 C-95.19838379 212.85514967 -95.21213945 196.69219187 -95.21041453 180.5291611 C-95.20975242 171.46595843 -95.21516581 162.40285634 -95.23677063 153.33967686 C-95.25505222 145.62154257 -95.25927287 137.90355446 -95.24575178 130.1854078 C-95.23925694 126.25410567 -95.2389773 122.32308339 -95.25645828 118.39180851 C-95.38754738 86.93565232 -89.81959848 62.34157143 -69.75271988 37.13422108 C-69.05855972 36.22543201 -69.05855972 36.22543201 -68.35037613 35.29828358 C-53.52237929 16.4262876 -24.35657815 0.04367599 0 0 Z " fill="#000000" transform="translate(94.75271987915039,-0.13422107696533203)"/>
<path d="M0 0 C3.82657055 1.63042911 7.32100312 3.72344109 10.875 5.875 C12.9188791 7.07228355 14.96315472 8.26889047 17.0078125 9.46484375 C18.0174707 10.06280762 19.02712891 10.66077148 20.06738281 11.27685547 C24.25481264 13.73730167 28.49645036 16.09381929 32.75 18.4375 C34.21746749 19.24996464 35.6849163 20.06246303 37.15234375 20.875 C37.81991699 21.24367188 38.48749023 21.61234375 39.17529297 21.9921875 C40.72331324 22.84718184 42.27000547 23.70458001 43.81640625 24.5625 C56.68987866 31.65399028 69.74607384 38.4337551 82.91938782 44.95011902 C87.89935925 47.42405737 92.82133173 49.99772031 97.734375 52.6015625 C108.67209808 58.37799074 119.68388775 64.00638125 130.70214844 69.62719727 C133.22138793 70.91288966 135.73963914 72.20050227 138.2578125 73.48828125 C139.00483429 73.86857986 139.75185608 74.24887848 140.52151489 74.64070129 C144.36345708 76.60634926 148.18563264 78.60812526 151.98388672 80.65698242 C152.72871307 81.05713058 153.47353943 81.45727875 154.24093628 81.86955261 C156 83 156 83 157 85 C157.10877836 87.62461477 157.15732243 90.22308652 157.16113281 92.84838867 C157.16609772 93.66029663 157.17106262 94.47220459 157.17617798 95.30871582 C157.190847 98.01180872 157.19761803 100.71484246 157.203125 103.41796875 C157.20595238 104.34726007 157.20877975 105.2765514 157.21169281 106.23400307 C157.22672355 111.17529207 157.23592163 116.11655171 157.24023438 121.05786133 C157.24458303 125.10678297 157.25832664 129.15548719 157.28125 133.2043457 C157.52271321 176.67643948 157.52271321 176.67643948 154 195 C153.76142021 196.28030342 153.76142021 196.28030342 153.51802063 197.58647156 C145.95114342 237.83958654 130.00682151 271.33952164 104 303 C103.35562988 303.79083984 103.35562988 303.79083984 102.69824219 304.59765625 C89.46237482 320.78698162 74.93877785 336.44510892 59 350 C58.04222656 350.84691406 57.08445312 351.69382812 56.09765625 352.56640625 C42.34592118 364.67198139 27.51136544 375.33499105 12.5 385.8125 C11.02188843 386.84455566 11.02188843 386.84455566 9.51391602 387.89746094 C8.59151123 388.53586914 7.66910645 389.17427734 6.71875 389.83203125 C5.90341797 390.39639893 5.08808594 390.9607666 4.24804688 391.54223633 C0.39509887 394.04071075 -2.32306596 395.60142117 -7 395 C-9.55078125 393.63671875 -9.55078125 393.63671875 -12.3125 391.6875 C-13.36308594 390.9553125 -14.41367188 390.223125 -15.49609375 389.46875 C-16.34276611 388.86933594 -16.34276611 388.86933594 -17.20654297 388.2578125 C-19.07150886 386.9498484 -20.95597838 385.6752368 -22.84765625 384.40625 C-31.89262106 378.31839925 -40.52168878 371.84960682 -49 365 C-50.35923617 363.91128498 -51.71861612 362.82274946 -53.078125 361.734375 C-54.4692557 360.61521164 -55.85989018 359.49543114 -57.25 358.375 C-57.87519531 357.87307129 -58.50039062 357.37114258 -59.14453125 356.85400391 C-68.59060501 349.1901617 -77.34807863 340.83852313 -85.94116211 332.24414062 C-87.55890192 330.6285932 -89.18450636 329.02124966 -90.81054688 327.4140625 C-97.33659499 320.92272015 -103.2966068 314.23555078 -109 307 C-110.33149888 305.37349654 -111.66458459 303.74828939 -113 302.125 C-129.33758353 281.56606845 -142.03426629 258.78182777 -151.15478516 234.20849609 C-151.73937236 232.68100451 -152.35027338 231.16341968 -152.98193359 229.65478516 C-155.6559019 223.26449726 -157.4969817 216.85241956 -159.125 210.125 C-159.37636719 209.12597656 -159.62773437 208.12695312 -159.88671875 207.09765625 C-161.60968773 200.10655176 -162.93644226 193.11929848 -164 186 C-164.17053391 184.87310257 -164.34106781 183.74620514 -164.51676941 182.5851593 C-166.01681204 171.77754198 -166.34326256 161.13966064 -166.37109375 150.23828125 C-166.38008604 148.38982583 -166.38920824 146.54137104 -166.39845276 144.69291687 C-166.41478854 140.85491175 -166.42261701 137.0169924 -166.42553711 133.17895508 C-166.43097088 128.26508703 -166.46891951 123.35202154 -166.51428127 118.43838215 C-166.54399084 114.63711047 -166.55125899 110.83603614 -166.55226326 107.03465843 C-166.55646117 105.22175522 -166.56887825 103.40885118 -166.58978081 101.59606361 C-166.61662934 99.07164498 -166.61189574 96.5491465 -166.59936523 94.0246582 C-166.61419952 93.28230927 -166.62903381 92.53996033 -166.64431763 91.77511597 C-166.5898524 87.92302831 -166.14896251 86.18646003 -163.71716309 83.14251709 C-161.46762547 81.36872854 -159.48673985 79.94261471 -156.92602539 78.69506836 C-156.15570984 78.3132843 -155.38539429 77.93150024 -154.59173584 77.53814697 C-153.76868958 77.14270691 -152.94564331 76.74726685 -152.09765625 76.33984375 C-151.23215149 75.91338562 -150.36664673 75.48692749 -149.47491455 75.04754639 C-147.62944671 74.13906995 -145.78183586 73.23493591 -143.93228149 72.33480835 C-139.1159959 69.98973919 -134.31625645 67.61128358 -129.515625 65.234375 C-128.11290092 64.54108345 -128.11290092 64.54108345 -126.68183899 63.83378601 C-120.14197783 60.59259297 -113.68739034 57.24420493 -107.3125 53.6875 C-98.79926678 48.939195 -90.17340162 44.44626722 -81.5 40 C-69.81692198 34.0056904 -58.2426725 27.8466494 -46.74365234 21.50488281 C-43.74894732 19.86229856 -40.74486601 18.23792101 -37.73828125 16.6171875 C-36.68374756 16.0485498 -35.62921387 15.47991211 -34.54272461 14.89404297 C-32.45967308 13.77184411 -30.37587201 12.65103527 -28.29125977 11.53173828 C-22.22771817 8.26078193 -16.31048814 4.87857629 -10.5625 1.07421875 C-6.90619678 -0.45853031 -3.84286779 -0.76980788 0 0 Z " fill="#020202" transform="translate(260,58)"/>
<path d="M0 0 C3.82657055 1.63042911 7.32100312 3.72344109 10.875 5.875 C12.9188791 7.07228355 14.96315472 8.26889047 17.0078125 9.46484375 C18.0174707 10.06280762 19.02712891 10.66077148 20.06738281 11.27685547 C24.25481264 13.73730167 28.49645036 16.09381929 32.75 18.4375 C34.21746749 19.24996464 35.6849163 20.06246303 37.15234375 20.875 C37.81991699 21.24367188 38.48749023 21.61234375 39.17529297 21.9921875 C40.72331324 22.84718184 42.27000547 23.70458001 43.81640625 24.5625 C56.68987866 31.65399028 69.74607384 38.4337551 82.91938782 44.95011902 C87.89935925 47.42405737 92.82133173 49.99772031 97.734375 52.6015625 C108.67209808 58.37799074 119.68388775 64.00638125 130.70214844 69.62719727 C133.22138793 70.91288966 135.73963914 72.20050227 138.2578125 73.48828125 C139.00483429 73.86857986 139.75185608 74.24887848 140.52151489 74.64070129 C144.36345708 76.60634926 148.18563264 78.60812526 151.98388672 80.65698242 C152.72871307 81.05713058 153.47353943 81.45727875 154.24093628 81.86955261 C156 83 156 83 157 85 C157.10877836 87.62461477 157.15732243 90.22308652 157.16113281 92.84838867 C157.16609772 93.66029663 157.17106262 94.47220459 157.17617798 95.30871582 C157.190847 98.01180872 157.19761803 100.71484246 157.203125 103.41796875 C157.20595238 104.34726007 157.20877975 105.2765514 157.21169281 106.23400307 C157.22672355 111.17529207 157.23592163 116.11655171 157.24023438 121.05786133 C157.24458303 125.10678297 157.25832664 129.15548719 157.28125 133.2043457 C157.52271321 176.67643948 157.52271321 176.67643948 154 195 C153.76142021 196.28030342 153.76142021 196.28030342 153.51802063 197.58647156 C145.95114342 237.83958654 130.00682151 271.33952164 104 303 C103.35562988 303.79083984 103.35562988 303.79083984 102.69824219 304.59765625 C89.46237482 320.78698162 74.93877785 336.44510892 59 350 C58.04222656 350.84691406 57.08445312 351.69382812 56.09765625 352.56640625 C42.34592118 364.67198139 27.51136544 375.33499105 12.5 385.8125 C11.02188843 386.84455566 11.02188843 386.84455566 9.51391602 387.89746094 C8.59151123 388.53586914 7.66910645 389.17427734 6.71875 389.83203125 C5.90341797 390.39639893 5.08808594 390.9607666 4.24804688 391.54223633 C0.39509887 394.04071075 -2.32306596 395.60142117 -7 395 C-9.55078125 393.63671875 -9.55078125 393.63671875 -12.3125 391.6875 C-13.36308594 390.9553125 -14.41367188 390.223125 -15.49609375 389.46875 C-16.34276611 388.86933594 -16.34276611 388.86933594 -17.20654297 388.2578125 C-19.07150886 386.9498484 -20.95597838 385.6752368 -22.84765625 384.40625 C-31.89262106 378.31839925 -40.52168878 371.84960682 -49 365 C-50.35923617 363.91128498 -51.71861612 362.82274946 -53.078125 361.734375 C-54.4692557 360.61521164 -55.85989018 359.49543114 -57.25 358.375 C-57.87519531 357.87307129 -58.50039062 357.37114258 -59.14453125 356.85400391 C-68.59060501 349.1901617 -77.34807863 340.83852313 -85.94116211 332.24414062 C-87.55890192 330.6285932 -89.18450636 329.02124966 -90.81054688 327.4140625 C-97.33659499 320.92272015 -103.2966068 314.23555078 -109 307 C-110.33149888 305.37349654 -111.66458459 303.74828939 -113 302.125 C-129.33758353 281.56606845 -142.03426629 258.78182777 -151.15478516 234.20849609 C-151.73937236 232.68100451 -152.35027338 231.16341968 -152.98193359 229.65478516 C-155.6559019 223.26449726 -157.4969817 216.85241956 -159.125 210.125 C-159.37636719 209.12597656 -159.62773437 208.12695312 -159.88671875 207.09765625 C-161.60968773 200.10655176 -162.93644226 193.11929848 -164 186 C-164.17053391 184.87310257 -164.34106781 183.74620514 -164.51676941 182.5851593 C-166.01681204 171.77754198 -166.34326256 161.13966064 -166.37109375 150.23828125 C-166.38008604 148.38982583 -166.38920824 146.54137104 -166.39845276 144.69291687 C-166.41478854 140.85491175 -166.42261701 137.0169924 -166.42553711 133.17895508 C-166.43097088 128.26508703 -166.46891951 123.35202154 -166.51428127 118.43838215 C-166.54399084 114.63711047 -166.55125899 110.83603614 -166.55226326 107.03465843 C-166.55646117 105.22175522 -166.56887825 103.40885118 -166.58978081 101.59606361 C-166.61662934 99.07164498 -166.61189574 96.5491465 -166.59936523 94.0246582 C-166.61419952 93.28230927 -166.62903381 92.53996033 -166.64431763 91.77511597 C-166.5898524 87.92302831 -166.14896251 86.18646003 -163.71716309 83.14251709 C-161.46762547 81.36872854 -159.48673985 79.94261471 -156.92602539 78.69506836 C-156.15570984 78.3132843 -155.38539429 77.93150024 -154.59173584 77.53814697 C-153.76868958 77.14270691 -152.94564331 76.74726685 -152.09765625 76.33984375 C-151.23215149 75.91338562 -150.36664673 75.48692749 -149.47491455 75.04754639 C-147.62944671 74.13906995 -145.78183586 73.23493591 -143.93228149 72.33480835 C-139.1159959 69.98973919 -134.31625645 67.61128358 -129.515625 65.234375 C-128.11290092 64.54108345 -128.11290092 64.54108345 -126.68183899 63.83378601 C-120.14197783 60.59259297 -113.68739034 57.24420493 -107.3125 53.6875 C-98.79926678 48.939195 -90.17340162 44.44626722 -81.5 40 C-69.81692198 34.0056904 -58.2426725 27.8466494 -46.74365234 21.50488281 C-43.74894732 19.86229856 -40.74486601 18.23792101 -37.73828125 16.6171875 C-36.68374756 16.0485498 -35.62921387 15.47991211 -34.54272461 14.89404297 C-32.45967308 13.77184411 -30.37587201 12.65103527 -28.29125977 11.53173828 C-22.22771817 8.26078193 -16.31048814 4.87857629 -10.5625 1.07421875 C-6.90619678 -0.45853031 -3.84286779 -0.76980788 0 0 Z M-10.0703125 48.1328125 C-10.87122314 48.60227295 -11.67213379 49.0717334 -12.49731445 49.55541992 C-13.36445068 50.07338135 -14.23158691 50.59134277 -15.125 51.125 C-23.43327332 55.98560752 -31.82180466 60.65303378 -40.3125 65.1875 C-47.46121633 69.00915388 -54.58588417 72.85480383 -61.625 76.875 C-67.02303399 79.94610512 -72.50047133 82.80729582 -78.07080078 85.5534668 C-84.7633105 88.85956981 -91.406964 92.25936863 -98.04190063 95.67913818 C-99.33285305 96.34393954 -100.62448512 97.00742298 -101.9168396 97.66949463 C-103.75886208 98.61344559 -105.59842991 99.56203102 -107.4375 100.51171875 C-108.50871094 101.06303467 -109.57992187 101.61435059 -110.68359375 102.18237305 C-111.77800781 102.78218994 -112.87242187 103.38200684 -114 104 C-115.06701141 104.40063911 -115.06701141 104.40063911 -116.15557861 104.80937195 C-118.69933441 105.94766645 -120.18933982 106.86499669 -122 109 C-123.18790815 113.90578455 -123.0285107 118.79391324 -122.921875 123.80859375 C-122.91709467 125.29573423 -122.91529793 126.78288698 -122.9163208 128.27003479 C-122.91006224 131.39701513 -122.87698734 134.52216335 -122.82324219 137.64868164 C-122.75626745 141.58795918 -122.74030428 145.52519875 -122.74252319 149.46497536 C-122.74003093 166.67603092 -121.92395664 183.16350709 -118 200 C-117.71837393 201.33649026 -117.44081173 202.67384635 -117.16821289 204.01220703 C-115.78773579 210.70124148 -113.75214281 216.76349289 -111 223 C-110.43810906 224.32913432 -109.87697762 225.65858985 -109.31640625 226.98828125 C-102.34413685 243.32001546 -94.24823078 258.23521589 -83 272 C-81.80896513 273.55980718 -80.621124 275.12206181 -79.4375 276.6875 C-75.54270377 281.68597385 -71.27437536 286.32668294 -67 291 C-65.37381982 292.81144121 -63.74879023 294.62391611 -62.125 296.4375 C-58.70255543 300.35718356 -58.70255543 300.35718356 -55 304 C-54.34 304 -53.68 304 -53 304 C-52.505 305.485 -52.505 305.485 -52 307 C-49.57063224 309.58030481 -46.73248707 311.74948223 -44 314 C-43.47567383 314.43521973 -42.95134766 314.87043945 -42.41113281 315.31884766 C-35.31808616 321.1866583 -28.08536055 326.7806173 -20.5 332 C-19.53126953 332.66660645 -19.53126953 332.66660645 -18.54296875 333.34667969 C-16.70980903 334.58871181 -14.86246234 335.80241669 -13 337 C-12.39027344 337.39574219 -11.78054687 337.79148437 -11.15234375 338.19921875 C-7.55079442 340.41615516 -5.20300873 341.41271625 -1 341 C1.09699539 340.08203392 1.09699539 340.08203392 3.0390625 338.69140625 C3.77874268 338.19632568 4.51842285 337.70124512 5.28051758 337.19116211 C6.05419678 336.65370361 6.82787598 336.11624512 7.625 335.5625 C8.42897217 335.01408447 9.23294434 334.46566895 10.0612793 333.90063477 C16.32259659 329.58176819 22.23903967 324.96722802 28 320 C29.05460587 319.11553498 30.1106684 318.23280474 31.16796875 317.3515625 C75.51327594 280.30251042 108.12049519 232.86261741 114.71191406 174.2855835 C115.6066541 164.08118715 115.52138719 153.81026268 115.50097656 143.57348633 C115.49497536 140.08202574 115.5262061 136.59190597 115.56609344 133.10070705 C115.59805979 129.7324567 115.5938545 126.36449543 115.59375 122.99609375 C115.6183429 121.12442787 115.6183429 121.12442787 115.64343262 119.21495056 C115.62947449 117.48517723 115.62947449 117.48517723 115.61523438 115.72045898 C115.61728882 114.70902328 115.61934326 113.69758759 115.62145996 112.65550232 C114.76645067 109.00204224 113.07735262 108.0231792 110 106 C107.55893567 104.66972491 105.13545864 103.41568924 102.63671875 102.20703125 C101.92707474 101.85670334 101.21743073 101.50637543 100.48628235 101.14543152 C98.22283265 100.02862621 95.95560852 98.91980941 93.6875 97.8125 C84.12737476 93.13663636 74.66485361 88.38566133 65.43742371 83.07600403 C61.23499554 80.66071403 56.97733887 78.44755773 52.625 76.3125 C36.07253999 68.13735944 19.75298138 59.42097565 4.14160156 49.55566406 C3.38588867 49.08612305 2.63017578 48.61658203 1.8515625 48.1328125 C1.20010254 47.71918457 0.54864258 47.30555664 -0.12255859 46.87939453 C-4.00192363 45.06229793 -6.66698884 46.1025239 -10.0703125 48.1328125 Z " fill="#FBFBFB" transform="translate(260,58)"/>
<path d="M0 0 C3.30391533 2.62265764 4.82788436 4.13304951 5.65942383 8.3215332 C5.67513428 9.55218506 5.69084473 10.78283691 5.70703125 12.05078125 C5.72215256 12.70958786 5.73727386 13.36839447 5.75285339 14.04716492 C5.79558566 16.135962 5.80455265 18.2233102 5.8125 20.3125 C5.83565614 21.73506417 5.86102383 23.15759417 5.88867188 24.58007812 C5.95137616 28.05335804 5.98382784 31.52615613 6 35 C6.82455688 34.27000038 6.82455688 34.27000038 7.66577148 33.5252533 C10.47118739 31.69211235 12.02056824 31.61510437 15.34765625 31.59594727 C16.94951782 31.57692101 16.94951782 31.57692101 18.58374023 31.55751038 C19.73173096 31.56044601 20.87972168 31.56338165 22.0625 31.56640625 C23.24593994 31.5611644 24.42937988 31.55592255 25.64868164 31.55052185 C28.15021988 31.54409977 30.65178832 31.545441 33.15332031 31.55395508 C36.98557129 31.56246795 40.8163337 31.53369865 44.6484375 31.50195312 C47.07812455 31.50034116 49.50781425 31.50091856 51.9375 31.50390625 C53.08549072 31.49267227 54.23348145 31.48143829 55.41625977 31.46986389 C57.01812134 31.48393532 57.01812134 31.48393532 58.65234375 31.49829102 C59.59070068 31.49845718 60.52905762 31.49862335 61.49584961 31.49879456 C64.70784061 32.14167422 65.91988826 33.54168093 68 36 C68.00410889 35.05157227 68.00821777 34.10314453 68.01245117 33.12597656 C68.03945746 29.59917184 68.08856376 26.0741036 68.15258789 22.54785156 C68.17575217 21.02322067 68.19016 19.49843012 68.19555664 17.97363281 C68.20485895 15.77828678 68.24586696 13.58544588 68.29296875 11.390625 C68.3086792 10.07094727 68.32438965 8.75126953 68.34057617 7.39160156 C69 4 69 4 71.35668945 1.57324219 C74.63481515 -0.37782847 76.24780227 -0.70353707 80 0 C82.95813017 2.05788878 84.75033051 3.67595162 85.43521118 7.30801392 C85.57955815 10.2140821 85.56157723 13.07951068 85.48828125 15.98828125 C85.47766914 17.57578438 85.47766914 17.57578438 85.46684265 19.19535828 C85.43890219 22.56846437 85.37616121 25.93989746 85.3125 29.3125 C85.28741682 31.60218953 85.26460369 33.89190514 85.24414062 36.18164062 C85.18907681 41.78832915 85.1054533 47.39404504 85 53 C85.61343262 53.05986084 86.22686523 53.11972168 86.85888672 53.18139648 C87.66600098 53.26462158 88.47311523 53.34784668 89.3046875 53.43359375 C90.10374512 53.51407959 90.90280273 53.59456543 91.72607422 53.67749023 C98.12501369 54.58504865 101.47684347 58.28036432 105.484375 62.96484375 C108.60536332 67.15565538 109.24493876 70.03649148 109.1953125 75.296875 C109.18564453 77.10478516 109.18564453 77.10478516 109.17578125 78.94921875 C109.15064453 80.83060547 109.15064453 80.83060547 109.125 82.75 C109.11597656 84.01972656 109.10695313 85.28945312 109.09765625 86.59765625 C109.07409005 89.73196093 109.04118832 92.86588541 109 96 C109.81984375 95.95359375 110.6396875 95.9071875 111.484375 95.859375 C112.56203125 95.82328125 113.6396875 95.7871875 114.75 95.75 C115.81734375 95.70359375 116.8846875 95.6571875 117.984375 95.609375 C121 96 121 96 123.359375 97.796875 C125.74088203 100.99489872 125.5548473 103.1160689 125 107 C123.13291495 109.36497439 121.67938569 110.66030715 119 112 C117.29297265 112.06996014 115.58331997 112.08440154 113.875 112.0625 C112.50988281 112.04896484 112.50988281 112.04896484 111.1171875 112.03515625 C110.06917969 112.01775391 110.06917969 112.01775391 109 112 C109.04640625 112.72703125 109.0928125 113.4540625 109.140625 114.203125 C109.90605052 135.5256931 95.54578687 149.46105742 82.29394531 164.51367188 C81.13038254 165.85023228 79.99675525 167.21271344 78.8671875 168.578125 C78.27164063 169.29484375 77.67609375 170.0115625 77.0625 170.75 C76.57910156 171.34296875 76.09570312 171.9359375 75.59765625 172.546875 C71.81207502 175.98999533 67.58344281 176.25414968 62.65258789 176.2746582 C61.39100357 176.28419022 60.12941925 176.29372223 58.8296051 176.30354309 C57.46062187 176.30328164 56.09163862 176.3023445 54.72265625 176.30078125 C53.30927912 176.30467166 51.89590316 176.30900704 50.48252869 176.31376648 C47.52452804 176.32121479 44.56664679 176.3209475 41.60864258 176.31567383 C37.82804432 176.3098802 34.04793613 176.32681384 30.26741886 176.3500185 C27.34965687 176.36478824 24.43201204 176.36562318 21.51421928 176.36250877 C20.12083401 176.36302033 18.7274419 176.36822698 17.33409309 176.37832069 C15.38170268 176.39072966 13.42921281 176.38193 11.47680664 176.37231445 C9.81398399 176.37325859 9.81398399 176.37325859 8.11756897 176.3742218 C0.22544184 175.42687916 -4.68649041 170.13053935 -9.42578125 164.22265625 C-10.38844236 162.94001202 -11.33811112 161.64755421 -12.27734375 160.34765625 C-13.99286198 158.00972777 -15.77996955 155.73686971 -17.57861328 153.46264648 C-27.57411812 140.73955473 -35.96484218 128.7954009 -35 112 C-35.73605469 112.05800781 -36.47210938 112.11601562 -37.23046875 112.17578125 C-45.16162295 112.54247926 -45.16162295 112.54247926 -49.1875 109.9375 C-51.46334187 106.24906662 -51.69758716 104.26303263 -51 100 C-49.35546875 97.80078125 -49.35546875 97.80078125 -47 96 C-43.984375 95.609375 -43.984375 95.609375 -40.75 95.75 C-39.67234375 95.78609375 -38.5946875 95.8221875 -37.484375 95.859375 C-36.66453125 95.90578125 -35.8446875 95.9521875 -35 96 C-35.02094727 95.22398437 -35.04189453 94.44796875 -35.06347656 93.6484375 C-35.14712759 90.09909252 -35.19881629 86.54995565 -35.25 83 C-35.28351563 81.77925781 -35.31703125 80.55851562 -35.3515625 79.30078125 C-35.44142926 70.98810606 -34.83725145 65.44674776 -29.25390625 58.9765625 C-22.99364713 53.97413835 -18.94065794 52.91922016 -11 53 C-11.00888245 52.40753479 -11.01776489 51.81506958 -11.0269165 51.20465088 C-11.11538296 45.04050338 -11.17573126 38.87653607 -11.21972656 32.71191406 C-11.23984688 30.41105831 -11.26714634 28.11025371 -11.30175781 25.80957031 C-11.35025612 22.50312683 -11.37296478 19.19735915 -11.390625 15.890625 C-11.41127014 14.86132874 -11.43191528 13.83203247 -11.45318604 12.77154541 C-11.45543265 5.62777117 -11.45543265 5.62777117 -9.10058594 2.38183594 C-5.84157366 0.23794827 -3.92926641 -0.54826973 0 0 Z " fill="#FCFCFB" transform="translate(219,152)"/>
<path d="M0 0 C1.32501778 -0.00422974 1.32501778 -0.00422974 2.67680359 -0.00854492 C3.64829849 -0.00652069 4.6197934 -0.00449646 5.62072754 -0.00241089 C6.64193192 -0.00416321 7.66313629 -0.00591553 8.71528625 -0.00772095 C12.10370565 -0.01213587 15.4920732 -0.00920272 18.88049316 -0.00582886 C21.2269695 -0.006502 23.57344578 -0.00747211 25.91992188 -0.00872803 C30.84282087 -0.01020451 35.76570174 -0.00805201 40.68859863 -0.00338745 C47.01081535 0.0023098 53.33298962 -0.00096947 59.65520477 -0.00695992 C64.50205813 -0.01056685 69.34890135 -0.00942633 74.195755 -0.00683212 C76.52745061 -0.00616322 78.85914713 -0.00699 81.19084167 -0.00931168 C84.44483896 -0.01184034 87.69876671 -0.00799452 90.95275879 -0.00241089 C92.41000114 -0.00544724 92.41000114 -0.00544724 93.89668274 -0.00854492 C94.78002792 -0.0057251 95.66337311 -0.00290527 96.57348633 0 C97.34335121 0.00037703 98.11321609 0.00075405 98.90641022 0.0011425 C100.78674316 0.12698364 100.78674316 0.12698364 102.78674316 1.12698364 C102.91387523 7.83454066 103.00123338 14.54178519 103.06140137 21.25027466 C103.08649264 23.53066621 103.12057353 25.81097776 103.16394043 28.09109497 C103.22482712 31.37539445 103.25300764 34.65862756 103.27502441 37.94338989 C103.30083084 38.9572023 103.32663727 39.97101471 103.35322571 41.01554871 C103.35541303 46.57842255 102.7965785 50.28324855 99.44926453 54.79359436 C94.66869127 58.62774969 88.91630763 58.41541525 83.10681152 58.38577271 C81.83007317 58.39102966 81.83007317 58.39102966 80.52754211 58.39639282 C77.72713962 58.40516192 74.92699177 58.39937857 72.12658691 58.39260864 C70.17415824 58.39395655 68.22172989 58.39589814 66.26930237 58.39840698 C62.18320511 58.40135161 58.09719545 58.39708139 54.0111084 58.38772583 C48.77661903 58.37632415 43.54233462 58.38289952 38.30785275 58.39487076 C34.27839109 58.40210074 30.24897797 58.39979631 26.21951485 58.39461517 C24.28942401 58.39328222 22.35932876 58.39491397 20.42924309 58.39957428 C17.73180352 58.40465902 15.0346952 58.3969022 12.33728027 58.38577271 C11.54181793 58.38982117 10.74635559 58.39386963 9.92678833 58.39804077 C4.2257977 58.35451316 0.66831669 57.41939926 -3.99523926 54.21609497 C-7.34726849 49.54760561 -6.83700738 45.30698797 -6.70153809 39.70120239 C-6.69446335 38.59847488 -6.68738861 37.49574738 -6.68009949 36.35960388 C-6.65215172 32.84386848 -6.58940849 29.32973621 -6.52575684 25.81448364 C-6.50067464 23.42843896 -6.47786134 21.04236928 -6.45739746 18.65628052 C-6.40232375 12.81263627 -6.31869228 6.96992449 -6.21325684 1.12698364 C-3.89714347 -0.03107304 -2.57755028 0.0012623 0 0 Z " fill="#79D512" transform="translate(208.2132568359375,222.87301635742188)"/>
<path d="M0 0 C1.32935326 -0.002062 1.32935326 -0.002062 2.68556213 -0.00416565 C3.66019913 -0.00057037 4.63483612 0.0030249 5.63900757 0.00672913 C6.66342453 0.0065831 7.68784149 0.00643707 8.74330139 0.00628662 C12.14133801 0.00698526 15.53932033 0.01477541 18.93734741 0.02259827 C21.2886146 0.02446262 23.63988218 0.02588644 25.9911499 0.02688599 C32.18898587 0.03070981 38.38679851 0.04053895 44.58462524 0.05158997 C50.90532109 0.06180699 57.22602069 0.06638423 63.54672241 0.07142639 C75.95558684 0.08216132 88.36443394 0.09923614 100.77328491 0.12025452 C100.77328491 0.45025452 100.77328491 0.78025452 100.77328491 1.12025452 C66.78328491 1.12025452 32.79328491 1.12025452 -2.22671509 1.12025452 C-2.22671509 3.43025452 -2.22671509 5.74025452 -2.22671509 8.12025452 C-2.55671509 8.12025452 -2.88671509 8.12025452 -3.22671509 8.12025452 C-3.55671509 21.65025452 -3.88671509 35.18025452 -4.22671509 49.12025452 C-3.56671509 49.12025452 -2.90671509 49.12025452 -2.22671509 49.12025452 C-2.22671509 49.78025452 -2.22671509 50.44025452 -2.22671509 51.12025452 C-1.56671509 51.12025452 -0.90671509 51.12025452 -0.22671509 51.12025452 C-0.22671509 51.78025452 -0.22671509 52.44025452 -0.22671509 53.12025452 C31.45328491 53.12025452 63.13328491 53.12025452 95.77328491 53.12025452 C95.77328491 53.78025452 95.77328491 54.44025452 95.77328491 55.12025452 C94.16646851 55.21113342 94.16646851 55.21113342 92.52719116 55.30384827 C91.130041 55.38823989 89.73290634 55.47288857 88.33578491 55.55775452 C87.27520874 55.61672913 87.27520874 55.61672913 86.19320679 55.67689514 C82.68638072 55.59649889 82.68638072 55.59649889 79.77328491 57.12025452 C77.31069121 57.24716052 74.87549733 57.30944587 72.41122437 57.32899475 C71.25503349 57.34367043 71.25503349 57.34367043 70.07548523 57.35864258 C67.51252994 57.38867075 64.94962725 57.41000577 62.38656616 57.42884827 C61.51236715 57.43542009 60.63816814 57.44199192 59.73747826 57.44876289 C55.10758457 57.4813937 50.47771422 57.50583183 45.8477478 57.52528381 C42.01504961 57.54308234 38.18308921 57.57787293 34.35067749 57.62782288 C29.72640519 57.68802978 25.102816 57.71876089 20.47817039 57.7284565 C18.71629079 57.73701447 16.95442958 57.75584121 15.19277382 57.78520012 C12.72181582 57.82415234 10.25351071 57.82514538 7.78231812 57.817276 C6.69494354 57.84727692 6.69494354 57.84727692 5.58560181 57.87788391 C1.57695199 57.82073666 -0.78865667 57.06315044 -3.68470764 54.40612793 C-6.13921139 51.5996198 -6.9657759 49.65191467 -6.90786743 45.84925842 C-6.90741425 44.84867401 -6.90696106 43.8480896 -6.90649414 42.81718445 C-6.87552643 41.7544632 -6.84455872 40.69174194 -6.81265259 39.59681702 C-6.8041629 38.49550446 -6.79567322 37.39419189 -6.78692627 36.25950623 C-6.75343086 32.75374629 -6.67815243 29.2503152 -6.60171509 25.74525452 C-6.57161078 23.3637774 -6.54423581 20.9822641 -6.51968384 18.60072327 C-6.45365223 12.77311035 -6.35334065 6.94684883 -6.22671509 1.12025452 C-3.90558721 -0.04030942 -2.58343884 -0.00308286 0 0 Z " fill="#7AD211" transform="translate(208.22671508789063,222.87974548339844)"/>
<path d="M0 0 C35.64 0 71.28 0 108 0 C108 0.66 108 1.32 108 2 C108.66 2 109.32 2 110 2 C110.0694429 9.26688753 110.12278189 16.53370378 110.15543652 23.80085564 C110.17110744 27.17513606 110.19237093 30.54918987 110.22631836 33.92333984 C110.2625736 37.80051748 110.27969728 41.67737172 110.29296875 45.5546875 C110.30845261 46.76929657 110.32393646 47.98390564 110.33988953 49.23532104 C110.34011612 50.35633209 110.34034271 51.47734314 110.34057617 52.63232422 C110.35056892 54.11791336 110.35056892 54.11791336 110.36076355 55.6335144 C110.24171158 56.41445465 110.12265961 57.1953949 110 58 C107 60 107 60 102 60 C103.98 57.36 105.96 54.72 108 52 C108.33 36.16 108.66 20.32 109 4 C73.03 4 37.06 4 0 4 C0 20.5 0 37 0 54 C-0.66 54 -1.32 54 -2 54 C-2 36.84 -2 19.68 -2 2 C-1.34 2 -0.68 2 0 2 C0 1.34 0 0.68 0 0 Z " fill="#F3FDF0" transform="translate(202,220)"/>
<path d="M0 0 C0.33 0 0.66 0 1 0 C1.12713207 6.70755702 1.21449022 13.41480155 1.2746582 20.12329102 C1.29974947 22.40368257 1.33383036 24.68399411 1.37719727 26.96411133 C1.43808395 30.2484108 1.46626447 33.53164391 1.48828125 36.81640625 C1.51408768 37.83021866 1.5398941 38.84403107 1.56648254 39.88856506 C1.56866986 45.45143891 1.00983534 49.15626491 -2.33747864 53.66661072 C-7.14767944 57.52452818 -12.91846863 57.27946434 -18.75927734 57.22705078 C-19.61846771 57.22734283 -20.47765808 57.22763489 -21.36288452 57.22793579 C-24.1873402 57.22654853 -27.01152821 57.21101584 -29.8359375 57.1953125 C-31.80034237 57.19158022 -33.7647491 57.18873426 -35.72915649 57.18673706 C-40.88797181 57.17911753 -46.04667369 57.15948345 -51.20544434 57.1373291 C-56.47418687 57.11683447 -61.74294781 57.10772761 -67.01171875 57.09765625 C-77.34119554 57.07623599 -87.67058832 57.04212032 -98 57 C-98 56.67 -98 56.34 -98 56 C-97.05008682 55.98969254 -96.10017365 55.97938507 -95.12147522 55.96876526 C-86.18902136 55.87119905 -77.25663978 55.76848134 -68.32430363 55.66066074 C-63.73160822 55.60539035 -59.1389065 55.55196391 -54.54614258 55.50268555 C-50.11760669 55.45510253 -45.68915071 55.40276219 -41.26070976 55.34705925 C-39.56736669 55.32660813 -37.87400169 55.3078997 -36.18062019 55.29092598 C-33.81702837 55.26694272 -31.45358896 55.23688034 -29.09008789 55.20532227 C-28.02949661 55.19668907 -28.02949661 55.19668907 -26.94747925 55.18788147 C-23.69225706 55.41161556 -23.69225706 55.41161556 -21 54 C-18.46950598 53.92686433 -15.96695163 53.90752473 -13.4375 53.9375 C-12.72658203 53.94201172 -12.01566406 53.94652344 -11.28320312 53.95117188 C-9.52209987 53.96299136 -7.76103964 53.98092737 -6 54 C-6 53.34 -6 52.68 -6 52 C-5.34 52 -4.68 52 -4 52 C-4 51.34 -4 50.68 -4 50 C-3.34 50 -2.68 50 -2 50 C-2 38.78 -2 27.56 -2 16 C-1.34 16 -0.68 16 0 16 C0 10.72 0 5.44 0 0 Z " fill="#8FC747" transform="translate(310,224)"/>
<path d="M0 0 C2.80845096 0.59333471 4.20397638 1.42249554 6.21875 3.46875 C7.22644037 7.90703332 6.97850802 12.13917347 4.71875 16.09375 C1.20303995 18.02739053 -1.92410781 18.33947121 -5.78125 17.46875 C-8.78125 15.40625 -8.78125 15.40625 -10.78125 12.46875 C-11.43747237 8.38558857 -11.15906677 6.24081035 -9.34375 2.53125 C-6.08647107 -0.09046231 -4.06945901 -0.05574601 0 0 Z " fill="#F2FBE6" transform="translate(281.78125,239.53125)"/>
<path d="M0 0 C0.66 1.32 1.32 2.64 2 4 C2.66 4 3.32 4 4 4 C4.61189802 11.95467422 4.61189802 11.95467422 2.5 15.5625 C-1.00246578 17.57641782 -4.12143713 17.87555677 -8 17 C-11 14.9375 -11 14.9375 -13 12 C-13.65622237 7.91683857 -13.37781677 5.77206035 -11.5625 2.0625 C-7.85142217 -0.92446508 -4.59138561 -0.44147939 0 0 Z " fill="#F3FCE8" transform="translate(236,240)"/>
<path d="M0 0 C1.32935326 -0.002062 1.32935326 -0.002062 2.68556213 -0.00416565 C3.66019913 -0.00057037 4.63483612 0.0030249 5.63900757 0.00672913 C6.66342453 0.0065831 7.68784149 0.00643707 8.74330139 0.00628662 C12.14133801 0.00698526 15.53932033 0.01477541 18.93734741 0.02259827 C21.2886146 0.02446262 23.63988218 0.02588644 25.9911499 0.02688599 C32.18898587 0.03070981 38.38679851 0.04053895 44.58462524 0.05158997 C50.90532109 0.06180699 57.22602069 0.06638423 63.54672241 0.07142639 C75.95558684 0.08216132 88.36443394 0.09923614 100.77328491 0.12025452 C100.77328491 0.45025452 100.77328491 0.78025452 100.77328491 1.12025452 C66.78328491 1.12025452 32.79328491 1.12025452 -2.22671509 1.12025452 C-2.22671509 3.43025452 -2.22671509 5.74025452 -2.22671509 8.12025452 C-2.55671509 8.12025452 -2.88671509 8.12025452 -3.22671509 8.12025452 C-3.55671509 21.65025452 -3.88671509 35.18025452 -4.22671509 49.12025452 C-3.56671509 49.12025452 -2.90671509 49.12025452 -2.22671509 49.12025452 C-2.22671509 49.78025452 -2.22671509 50.44025452 -2.22671509 51.12025452 C-1.56671509 51.12025452 -0.90671509 51.12025452 -0.22671509 51.12025452 C-0.55671509 52.44025452 -0.88671509 53.76025452 -1.22671509 55.12025452 C-3.69619751 53.82826233 -3.69619751 53.82826233 -6.22671509 51.12025452 C-6.95963552 47.35100663 -6.80703485 43.61913583 -6.71499634 39.79212952 C-6.70438423 38.13591583 -6.70438423 38.13591583 -6.69355774 36.44624329 C-6.66557272 32.92022406 -6.60282265 29.39579365 -6.53921509 25.87025452 C-6.51413771 23.47965245 -6.49132357 21.08902549 -6.47085571 18.69837952 C-6.41573255 12.83846257 -6.33206404 6.97947204 -6.22671509 1.12025452 C-3.90558721 -0.04030942 -2.58343884 -0.00308286 0 0 Z " fill="#81C126" transform="translate(208.22671508789063,222.87974548339844)"/>
<path d="M0 0 C35.64 0 71.28 0 108 0 C108 0.33 108 0.66 108 1 C73.02 1.33 38.04 1.66 2 2 C2 18.5 2 35 2 52 C1.34 52 0.68 52 0 52 C0 34.84 0 17.68 0 0 Z " fill="#CBF097" transform="translate(200,222)"/>
<path d="M0 0 C0.33 0 0.66 0 1 0 C1.07586651 7.65374424 1.12852217 15.30739207 1.16479492 22.96142578 C1.17991108 25.56693139 1.20040432 28.17241144 1.22631836 30.77783203 C1.26257688 34.51601456 1.27969798 38.25386165 1.29296875 41.9921875 C1.30845261 43.16304901 1.32393646 44.33391052 1.33988953 45.54025269 C1.34022942 47.161707 1.34022942 47.161707 1.34057617 48.81591797 C1.34723801 49.77078094 1.35389984 50.72564392 1.36076355 51.70944214 C1.24171158 52.46532623 1.12265961 53.22121033 1 54 C-2.22791555 56.1519437 -3.28400809 56.20086443 -7 56 C-6.57621063 55.55338013 -6.15242126 55.10676025 -5.71578979 54.64660645 C-0.70717502 48.80788777 -0.12738457 44.25295796 -0.1953125 36.71875 C-0.18160614 35.66465942 -0.16789978 34.61056885 -0.15377808 33.52453613 C-0.11661153 30.18258463 -0.12018425 26.84212811 -0.125 23.5 C-0.10686403 21.22393524 -0.08605852 18.94789009 -0.0625 16.671875 C-0.01077431 11.11443747 0.0075767 5.5576563 0 0 Z " fill="#CDFB94" transform="translate(311,224)"/>
<path d="M0 0 C2.3125 2 2.3125 2 4 4 C1.06195683 5.52342979 -1.86560559 6.92770717 -5 8 C-5.66 7.67 -6.32 7.34 -7 7 C-5.33333333 5.33333333 -3.66666667 3.66666667 -2 2 C-5.33537489 3.11179163 -6.63707344 4.47411298 -9 7 C-9.33 5.68 -9.66 4.36 -10 3 C-6.5590033 0.64045941 -4.207839 -0.75525315 0 0 Z " fill="#F0F0F0" transform="translate(219,152)"/>
<path d="M0 0 C0.99 0.66 1.98 1.32 3 2 C2 5 2 5 0 6 C-0.99 6.66 -1.98 7.32 -3 8 C-5 4.25 -5 4.25 -5 2 C-5.66 2 -6.32 2 -7 2 C-7.33 2.66 -7.66 3.32 -8 4 C-8 3.01 -8 2.02 -8 1 C-5.22899606 -0.38550197 -3.0665294 -0.1877467 0 0 Z " fill="#ECECEC" transform="translate(299,152)"/>
<path d="M0 0 C2.20319677 4.40639354 3.10924981 6.97450871 3 12 C2.34 12 1.68 12 1 12 C0.67 13.32 0.34 14.64 0 16 C-0.99 15.34 -1.98 14.68 -3 14 C-2.67 13.67 -2.34 13.34 -2 13 C-1.92773498 11.14712498 -1.9161878 9.29166122 -1.9375 7.4375 C-1.94652344 6.42558594 -1.95554687 5.41367188 -1.96484375 4.37109375 C-1.97644531 3.58863281 -1.98804688 2.80617187 -2 2 C-1.34 2 -0.68 2 0 2 C0 1.34 0 0.68 0 0 Z " fill="#87D530" transform="translate(289,240)"/>
<path d="M0 0 C2.18380083 1.09190042 3.42698959 2.1409877 5 4 C5 4.99 5 5.98 5 7 C4.38125 6.79375 3.7625 6.5875 3.125 6.375 C2.42375 6.25125 1.7225 6.1275 1 6 C0.34 6.66 -0.32 7.32 -1 8 C-1.66 8 -2.32 8 -3 8 C-3.66 8.66 -4.32 9.32 -5 10 C-5 4.69520066 -3.4637943 3.81017373 0 0 Z " fill="#E7E8E6" transform="translate(192,209)"/>
<path d="M0 0 C2.97 0 5.94 0 9 0 C9.66 1.32 10.32 2.64 11 4 C7.86650268 5.04449911 7.01031744 4.93423645 4 4 C4 3.34 4 2.68 4 2 C2.35 2 0.7 2 -1 2 C-0.67 1.34 -0.34 0.68 0 0 Z " fill="#EDFADC" transform="translate(227,240)"/>
<path d="M0 0 C0.66 0.66 1.32 1.32 2 2 C1.01 3.485 1.01 3.485 0 5 C-0.39387788 7.32387947 -0.73486085 9.65793749 -1 12 C-1.99 12 -2.98 12 -4 12 C-4 9.36 -4 6.72 -4 4 C-3.34 4 -2.68 4 -2 4 C-2 3.34 -2 2.68 -2 2 C-1.34 2 -0.68 2 0 2 C0 1.34 0 0.68 0 0 Z " fill="#86CC34" transform="translate(224,240)"/>
<path d="M0 0 C0.99 0.33 1.98 0.66 3 1 C2.34 3.97 1.68 6.94 1 10 C0.01 10 -0.98 10 -2 10 C-2 7.36 -2 4.72 -2 2 C-1.34 2 -0.68 2 0 2 C0 1.34 0 0.68 0 0 Z " fill="#7FCD26" transform="translate(270,242)"/>
<path d="M0 0 C0.33 0.99 0.66 1.98 1 3 C0.34 3 -0.32 3 -1 3 C-1 3.66 -1 4.32 -1 5 C-3.64 5 -6.28 5 -9 5 C-9 4.01 -9 3.02 -9 2 C-6.94921875 1.77213542 -4.8984375 1.54427083 -2.84765625 1.31640625 C-0.98859771 1.18113386 -0.98859771 1.18113386 0 0 Z " fill="#86CA34" transform="translate(237,255)"/>
<path d="M0 0 C1.65 0 3.3 0 5 0 C4.40138258 2.35171131 3.73075648 4.6859378 3 7 C2.01 7.495 2.01 7.495 1 8 C-0.35439668 5.29120665 -0.06501451 2.99066732 0 0 Z " fill="#81D828" transform="translate(240,246)"/>
<path d="M0 0 C2.31 0 4.62 0 7 0 C7.33 1.32 7.66 2.64 8 4 C4.7 4.33 1.4 4.66 -2 5 C-1.34 3.35 -0.68 1.7 0 0 Z " fill="#82D626" transform="translate(276,236)"/>
<path d="M0 0 C0 3.77910478 -0.99703962 4.46106101 -3.5 7.1875 C-4.1496875 7.90292969 -4.799375 8.61835938 -5.46875 9.35546875 C-5.9740625 9.89816406 -6.479375 10.44085938 -7 11 C-8.32 10.67 -9.64 10.34 -11 10 C-5.555 5.05 -5.555 5.05 0 0 Z " fill="#DFDFDF" transform="translate(304,363)"/>
<path d="M0 0 C1.98 0.99 1.98 0.99 4 2 C4 5.3 4 8.6 4 12 C3.01 12.495 3.01 12.495 2 13 C2 9.7 2 6.4 2 3 C1.34 3 0.68 3 0 3 C0 2.01 0 1.02 0 0 Z " fill="#E8FAD2" transform="translate(284,241)"/>
<path d="M0 0 C0 0.66 0 1.32 0 2 C-2.3125 3.6875 -2.3125 3.6875 -5 5 C-5.99 4.67 -6.98 4.34 -8 4 C-5.97675095 -0.48005146 -4.79569304 -1.43870791 0 0 Z " fill="#0C0C0C" transform="translate(163,105)"/>
<path d="M0 0 C0.66 0 1.32 0 2 0 C2.22893297 3.03336186 2.36475845 5.97465051 2 9 C0 11.0625 0 11.0625 -2 12 C-2 10.68 -2 9.36 -2 8 C-1.34 8 -0.68 8 0 8 C0 5.36 0 2.72 0 0 Z " fill="#E6FAD6" transform="translate(238,244)"/>
<path d="M0 0 C0 1.32 0 2.64 0 4 C-3.22791555 6.1519437 -4.28400809 6.20086443 -8 6 C-3.375 0 -3.375 0 0 0 Z " fill="#E2F8C7" transform="translate(312,274)"/>
<path d="M0 0 C4 0 4 0 5.75 1.5 C6.36875 2.2425 6.36875 2.2425 7 3 C3.86501708 4.85776765 1.62528568 5.20140476 -2 5 C-1.34 4.34 -0.68 3.68 0 3 C0 2.01 0 1.02 0 0 Z " fill="#D8D8D8" transform="translate(255,448)"/>
<path d="M0 0 C0.66 0 1.32 0 2 0 C2 0.99 2 1.98 2 3 C-0.3125 5.25 -0.3125 5.25 -3 7 C-3.99 6.67 -4.98 6.34 -6 6 C-4 4 -2 2 0 0 Z " fill="#131313" transform="translate(298,424)"/>
<path d="M0 0 C2.64 0 5.28 0 8 0 C8 0.99 8 1.98 8 3 C5.36 3 2.72 3 0 3 C0 2.01 0 1.02 0 0 Z " fill="#85CA34" transform="translate(276,257)"/>
<path d="M0 0 C0.6875 1.8125 0.6875 1.8125 1 4 C-1.02689886 6.9277428 -3.7183176 7.84697645 -7 9 C-6.02180976 7.68677212 -5.0424189 6.37443848 -4.0625 5.0625 C-3.51722656 4.33160156 -2.97195313 3.60070312 -2.41015625 2.84765625 C-1 1 -1 1 0 0 Z " fill="#E0E0E0" transform="translate(332,333)"/>
<path d="M0 0 C1.32 0 2.64 0 4 0 C4 0.66 4 1.32 4 2 C4.66 2 5.32 2 6 2 C5.67 3.32 5.34 4.64 5 6 C3.2925002 4.71937515 1.62626404 3.38232443 0 2 C0 1.34 0 0.68 0 0 Z " fill="#8BCB38" transform="translate(202,272)"/>
<path d="M0 0 C-0.556875 0.226875 -1.11375 0.45375 -1.6875 0.6875 C-4.63246684 2.35896766 -6.68156544 4.55276352 -9 7 C-9.33 5.68 -9.66 4.36 -10 3 C-6.48812804 0.59185923 -4.27343092 -0.36629408 0 0 Z " fill="#DBDBDB" transform="translate(219,152)"/>
<path d="M0 0 C0.33 0.99 0.66 1.98 1 3 C-0.375 4.5 -0.375 4.5 -2 6 C-2.66 6 -3.32 6 -4 6 C-4 5.34 -4 4.68 -4 4 C-4.66 3.67 -5.32 3.34 -6 3 C-4.02 2.01 -2.04 1.02 0 0 Z " fill="#161616" transform="translate(181,144)"/>
<path d="M0 0 C0.66 0.33 1.32 0.66 2 1 C-0.31 3.64 -2.62 6.28 -5 9 C-5.66 8.67 -6.32 8.34 -7 8 C-4.69 5.36 -2.38 2.72 0 0 Z " fill="#282828" transform="translate(306,310)"/>
<path d="M0 0 C1.98 0 3.96 0 6 0 C6 0.66 6 1.32 6 2 C6.66 2 7.32 2 8 2 C8 2.66 8 3.32 8 4 C5.33333333 3.33333333 2.66666667 2.66666667 0 2 C0 1.34 0 0.68 0 0 Z " fill="#EDFDDA" transform="translate(304,220)"/>
<path d="M0 0 C0.66 0 1.32 0 2 0 C0.52307692 4.67692308 0.52307692 4.67692308 -2.125 6.3125 C-3.053125 6.6528125 -3.053125 6.6528125 -4 7 C-4 6.01 -4 5.02 -4 4 C-3.34 4 -2.68 4 -2 4 C-2 3.34 -2 2.68 -2 2 C-1.34 2 -0.68 2 0 2 C0 1.34 0 0.68 0 0 Z " fill="#89C53A" transform="translate(308,272)"/>
<path d="M0 0 C2.1875 0.3125 2.1875 0.3125 4 1 C3.01 2.485 3.01 2.485 2 4 C0.35 3.67 -1.3 3.34 -3 3 C-1.75 1.4375 -1.75 1.4375 0 0 Z " fill="#E8E8E8" transform="translate(229,184)"/>
<path d="M0 0 C2.125 0.375 2.125 0.375 4 1 C4 1.66 4 2.32 4 3 C2.35 3.66 0.7 4.32 -1 5 C-1.33 4.01 -1.66 3.02 -2 2 C-1.34 1.34 -0.68 0.68 0 0 Z " fill="#0D0D0D" transform="translate(201,82)"/>
<path d="M0 0 C3.16115776 1.36983503 3.9927092 1.9890638 6 5 C2.89448334 5 1.64738916 4.4606285 -1 3 C-0.67 2.01 -0.34 1.02 0 0 Z " fill="#F1F1F1" transform="translate(197,355)"/>
<path d="M0 0 C1.32 1.65 2.64 3.3 4 5 C0.125 6 0.125 6 -1 6 C-1.042721 4.33388095 -1.04063832 2.66617115 -1 1 C-0.67 0.67 -0.34 0.34 0 0 Z " fill="#1B1B1B" transform="translate(131,337)"/>
<path d="M0 0 C1.98 1.65 3.96 3.3 6 5 C4.68 5.33 3.36 5.66 2 6 C2 5.34 2 4.68 2 4 C1.34 4 0.68 4 0 4 C0 2.68 0 1.36 0 0 Z " fill="#E3FABD" transform="translate(202,274)"/>
</svg>
